<?xml version="1.0" standalone="no"?>
<!DOCTYPE svg PUBLIC "-//W3C//DTD SVG 20010904//EN"
 "http://www.w3.org/TR/2001/REC-SVG-20010904/DTD/svg10.dtd">
<svg version="1.0" xmlns="http://www.w3.org/2000/svg"
 width="2700.000000pt" height="2700.000000pt" viewBox="0 0 2700.000000 2700.000000"
 preserveAspectRatio="xMidYMid meet">
<metadata>
Created by potrace 1.11, written by Peter Selinger 2001-2013
</metadata>
<g transform="translate(0.000000,2700.000000) scale(0.100000,-0.100000)"
fill="#000000" stroke="none">
<path d="M12986 25313 c-1 -1 -914 -3 -2029 -4 l-2027 -1 -295 -297 c-601
-602 -5328 -5340 -5852 -5866 l-542 -544 4 -2828 c2 -1555 4 -3686 5 -4735 l2
-1907 356 -356 c346 -346 4529 -4517 5747 -5732 l604 -602 4248 5 c2337 3
4469 6 4738 7 l490 2 288 290 c159 160 1416 1421 2795 2803 1379 1382 2753
2760 3054 3062 l547 549 -4 2828 c-2 1555 -4 3686 -5 4735 l-2 1907 -336 336
c-186 185 -1403 1399 -2705 2698 -1303 1299 -2659 2652 -3015 3007 l-647 645
-2708 0 c-1490 0 -2710 -1 -2711 -2z"/>
</g>
</svg>
