<?xml version="1.0" standalone="no"?>
<!DOCTYPE svg PUBLIC "-//W3C//DTD SVG 20010904//EN"
 "http://www.w3.org/TR/2001/REC-SVG-20010904/DTD/svg10.dtd">
<svg version="1.0" xmlns="http://www.w3.org/2000/svg"
 width="512.000000pt" height="512.000000pt" viewBox="0 0 512.000000 512.000000"
 preserveAspectRatio="xMidYMid meet">
<metadata>
Created by potrace 1.11, written by Peter Selinger 2001-2013
</metadata>
<g transform="translate(0.000000,512.000000) scale(0.100000,-0.100000)"
fill="#000000" stroke="none">
<path d="M2398 5115 c-2 -1 -38 -5 -82 -9 -279 -24 -602 -115 -871 -247 -195
-95 -298 -159 -463 -286 -45 -34 -89 -63 -97 -63 -8 0 -14 -4 -12 -9 1 -5 -9
-19 -23 -31 -14 -12 -49 -45 -79 -73 -30 -29 -51 -45 -46 -37 5 9 5 12 -1 7
-5 -5 -9 -12 -9 -17 0 -4 -22 -34 -50 -65 -237 -274 -405 -556 -520 -875 -50
-139 -104 -356 -121 -490 -3 -30 -8 -68 -11 -85 -8 -64 -10 -434 -2 -510 71
-662 365 -1245 845 -1676 242 -217 580 -409 914 -519 275 -91 493 -125 800
-124 298 0 496 33 790 130 306 102 589 257 835 459 55 46 111 94 124 109 13
14 28 23 32 20 5 -3 9 0 9 5 0 6 27 39 59 73 32 35 74 82 92 104 19 23 46 57
62 75 41 50 170 245 208 314 81 146 146 290 197 435 58 166 87 290 128 550 9
61 12 570 3 564 -4 -2 -7 4 -7 13 2 38 -30 207 -62 333 -112 436 -347 851
-664 1173 -46 45 -74 82 -70 89 4 7 3 8 -5 4 -10 -6 -62 32 -146 107 -10 10
-76 55 -145 101 -336 225 -719 375 -1090 427 -41 5 -86 12 -100 15 -27 5 -417
14 -422 9z m62 -319 c0 -7 3 -7 8 -1 11 16 46 19 36 3 -6 -10 -5 -10 7 -2 21
17 159 16 153 0 -8 -21 -55 -38 -118 -43 -45 -4 -56 -2 -51 8 6 8 4 10 -4 4
-12 -7 -81 23 -81 36 0 4 11 7 25 7 14 0 25 -6 25 -12z m-137 -3 c-7 -2 -19
-2 -25 0 -7 3 -2 5 12 5 14 0 19 -2 13 -5z m-86 -9 c-3 -3 -12 -4 -19 -1 -8 3
-5 6 6 6 11 1 17 -2 13 -5z m-60 -10 c-3 -3 -12 -4 -19 -1 -8 3 -5 6 6 6 11 1
17 -2 13 -5z m780 0 c-3 -3 -12 -4 -19 -1 -8 3 -5 6 6 6 11 1 17 -2 13 -5z
m60 -10 c-3 -3 -12 -4 -19 -1 -8 3 -5 6 6 6 11 1 17 -2 13 -5z m-1277 -108 c0
-2 -7 -7 -16 -10 -8 -3 -12 -2 -9 4 6 10 25 14 25 6z m1725 -36 c3 -6 -1 -7
-9 -4 -18 7 -21 14 -7 14 6 0 13 -4 16 -10z m-1835 -14 c0 -2 -7 -7 -16 -10
-8 -3 -12 -2 -9 4 6 10 25 14 25 6z m-100 -50 c0 -2 -7 -7 -16 -10 -8 -3 -12
-2 -9 4 6 10 25 14 25 6z m2135 -36 c3 -6 -1 -7 -9 -4 -18 7 -21 14 -7 14 6 0
13 -4 16 -10z m276 -187 c13 -16 12 -17 -3 -4 -17 13 -22 21 -14 21 2 0 10 -8
17 -17z m136 -116 c4 -7 -19 10 -50 37 -31 27 -57 51 -57 53 0 7 98 -76 107
-90z m-2947 80 c0 -2 -10 -12 -22 -23 l-23 -19 19 23 c18 21 26 27 26 19z
m-80 -70 c0 -1 -37 -38 -82 -82 l-83 -80 80 83 c74 76 85 87 85 79z m1590 -28
c30 -8 100 -60 100 -74 0 -8 4 -15 9 -15 5 0 17 -23 26 -51 21 -64 15 -126
-20 -185 -34 -57 -41 -60 -37 -13 3 23 8 36 14 33 6 -4 2 5 -7 20 -10 14 -13
26 -8 26 5 0 8 21 8 48 -1 26 3 53 8 60 6 7 6 12 1 10 -5 -2 -9 2 -9 7 0 6 4
9 10 7 5 -2 -3 8 -18 22 -15 14 -27 33 -27 42 0 10 -3 15 -6 12 -3 -4 -22 5
-41 18 -71 48 -182 20 -220 -55 -10 -20 -20 -38 -23 -41 -7 -7 -6 -48 2 -55 5
-6 -5 -60 -14 -69 -2 -1 3 -10 11 -19 7 -10 9 -17 4 -17 -5 0 -8 -15 -6 -32
l3 -33 -17 35 c-12 23 -18 59 -18 106 0 65 3 76 34 121 32 47 86 86 136 97 21
5 80 2 105 -5z m1515 -49 c10 -11 16 -20 13 -20 -3 0 -13 9 -23 20 -10 11 -16
20 -13 20 3 0 13 -9 23 -20z m100 -110 c10 -11 16 -20 13 -20 -3 0 -13 9 -23
20 -10 11 -16 20 -13 20 3 0 13 -9 23 -20z m-3395 -13 c0 -2 -10 -12 -22 -23
l-23 -19 19 23 c18 21 26 27 26 19z m3451 -54 c13 -16 12 -17 -3 -4 -17 13
-22 21 -14 21 2 0 10 -8 17 -17z m-3501 -7 c0 -2 -8 -10 -17 -17 -16 -13 -17
-12 -4 4 13 16 21 21 21 13z m3541 -43 c13 -16 12 -17 -3 -4 -17 13 -22 21
-14 21 2 0 10 -8 17 -17z m-276 -483 c6 -5 14 -7 17 -5 9 9 114 -34 156 -65
57 -41 94 -120 86 -185 -6 -51 -32 -108 -45 -99 -4 2 -10 -4 -14 -15 -7 -22
-58 -46 -76 -35 -8 4 -10 3 -5 -4 5 -8 -4 -12 -26 -13 -49 -2 -65 1 -132 22
-36 12 -72 17 -89 13 -46 -10 -245 -125 -293 -169 l-44 -41 0 -218 c0 -159 4
-225 14 -249 16 -39 73 -96 103 -103 13 -4 20 -11 16 -17 -3 -6 -1 -7 5 -3 6
4 43 -3 82 -15 57 -17 84 -20 138 -14 105 10 134 21 177 66 113 117 274 100
330 -35 28 -65 21 -135 -21 -217 -51 -102 -142 -156 -314 -189 -130 -25 -338
-31 -325 -10 3 5 0 7 -8 4 -16 -6 -194 45 -259 75 -24 10 -67 37 -95 58 -41
29 -51 43 -47 58 4 16 3 17 -5 5 -8 -12 -15 -8 -41 20 -75 84 -130 195 -138
280 -8 79 -7 482 0 552 8 73 35 151 49 142 5 -3 6 1 3 9 -5 15 41 75 84 110
12 10 28 24 35 31 71 71 380 242 486 269 56 14 172 7 196 -13z m-2169 -91 c24
-11 42 -25 39 -30 -4 -5 0 -6 8 -3 17 6 62 -57 75 -106 12 -45 -6 -116 -39
-158 -43 -55 -96 -70 -254 -73 -77 -2 -147 1 -154 6 -10 5 -12 4 -7 -3 5 -9
-12 -12 -61 -13 -37 -1 -72 -1 -76 0 -5 1 -6 -2 -4 -6 4 -7 11 -73 24 -228 3
-33 7 -125 9 -205 3 -80 12 -184 20 -232 9 -48 14 -97 11 -108 -3 -11 -1 -20
3 -20 5 0 7 -8 5 -17 -2 -10 -4 -18 -5 -18 0 0 -3 -25 -5 -55 -2 -30 -9 -56
-14 -58 -5 -2 -8 -9 -5 -16 7 -18 -23 -130 -36 -134 -5 -2 -8 -8 -5 -12 10
-16 -34 -80 -53 -80 -6 0 -12 -7 -16 -15 -3 -8 -12 -15 -20 -15 -8 0 -16 -5
-18 -10 -2 -6 -23 -11 -48 -12 -73 -2 -102 1 -95 12 3 5 0 8 -7 5 -17 -7 -77
51 -93 89 -22 52 -23 132 -2 120 9 -6 9 -5 0 7 -12 15 -7 93 6 85 3 -2 7 17 9
42 1 25 8 52 15 61 10 12 9 13 -1 7 -9 -5 -12 1 -12 21 0 15 -6 71 -14 123 -7
52 -14 156 -15 230 -1 74 -3 149 -5 165 -7 57 -19 180 -21 222 -3 40 -29 85
-37 62 -2 -6 -60 -12 -148 -14 -129 -4 -150 -3 -189 15 -56 26 -86 59 -106
115 -18 54 -18 69 -1 115 32 92 111 136 262 146 55 3 131 10 169 14 39 4 196
7 350 5 154 -2 305 0 335 4 75 8 174 -4 226 -30z m-1529 -261 c-3 -8 -6 -5 -6
6 -1 11 2 17 5 13 3 -3 4 -12 1 -19z m4390 -90 c-3 -8 -6 -5 -6 6 -1 11 2 17
5 13 3 -3 4 -12 1 -19z m-4420 -60 c-3 -7 -5 -2 -5 12 0 14 2 19 5 13 2 -7 2
-19 0 -25z m4430 0 c-3 -8 -6 -5 -6 6 -1 11 2 17 5 13 3 -3 4 -12 1 -19z
m-4450 -160 c-3 -8 -6 -5 -6 6 -1 11 2 17 5 13 3 -3 4 -12 1 -19z m4470 -25
c-3 -10 -5 -2 -5 17 0 19 2 27 5 18 2 -10 2 -26 0 -35z m-2034 -112 c-2 -6 1
-11 5 -11 11 0 39 -65 46 -109 l6 -35 -25 24 c-13 12 -22 27 -18 33 3 6 1 7
-4 4 -6 -4 -16 0 -23 8 -7 8 -9 15 -4 15 5 0 1 5 -9 11 -10 6 -16 17 -13 27 3
9 2 23 -3 31 -5 8 -7 20 -4 28 5 12 9 12 27 -1 11 -8 20 -19 19 -25z m-2397
-58 c16 -38 18 -84 4 -133 -12 -40 -46 -89 -48 -69 -1 8 -3 29 -5 47 -3 19 0
32 7 32 6 0 4 5 -4 10 -13 9 -13 10 0 10 12 0 13 2 1 9 -7 5 -10 14 -7 20 4 6
12 8 18 5 7 -4 8 -2 4 5 -4 6 -12 9 -17 6 -5 -4 -9 -1 -9 4 0 6 6 11 13 11 8
0 8 3 1 8 -5 4 -10 31 -11 61 l0 54 19 -24 c11 -13 26 -38 34 -56z m4441 5
c-2 -13 -4 -5 -4 17 -1 22 1 32 4 23 2 -10 2 -28 0 -40z m-2403 -26 c2 -27 0
-42 -8 -43 -7 0 -7 -2 2 -6 6 -2 12 -14 12 -24 0 -11 4 -28 9 -37 12 -22 885
-893 908 -906 19 -10 134 -16 128 -6 -2 3 9 11 24 18 16 7 37 29 47 50 10 20
21 39 24 42 4 4 5 19 1 43 0 4 0 8 0 10 1 1 -5 18 -14 38 -8 20 -64 85 -124
145 -60 60 -79 81 -43 47 36 -34 81 -68 102 -76 113 -47 155 -206 76 -291 -10
-11 -18 -24 -18 -29 0 -5 -7 -7 -15 -3 -8 3 -14 0 -12 -6 1 -7 -14 -18 -33
-24 -102 -37 -217 14 -245 106 -4 14 -154 173 -333 353 -254 255 -338 334
-377 352 -112 53 -161 144 -134 250 14 54 17 53 23 -3z m2403 -64 c-2 -13 -4
-3 -4 22 0 25 2 35 4 23 2 -13 2 -33 0 -45z m-10 -175 c-3 -10 -5 -4 -5 12 0
17 2 24 5 18 2 -7 2 -21 0 -30z m-4470 -5 c-3 -7 -5 -2 -5 12 0 14 2 19 5 13
2 -7 2 -19 0 -25z m10 -90 c-3 -7 -5 -2 -5 12 0 14 2 19 5 13 2 -7 2 -19 0
-25z m4450 0 c-3 -7 -5 -2 -5 12 0 14 2 19 5 13 2 -7 2 -19 0 -25z m-156 -551
c-10 -9 -11 -8 -5 6 3 10 9 15 12 12 3 -3 0 -11 -7 -18z m-4077 -113 c3 -8 2
-12 -4 -9 -6 3 -10 10 -10 16 0 14 7 11 14 -7z m3957 -127 c-10 -9 -11 -8 -5
6 3 10 9 15 12 12 3 -3 0 -11 -7 -18z m-121 -191 c0 -2 -8 -10 -17 -17 -16
-13 -17 -12 -4 4 13 16 21 21 21 13z m-3533 -109 c30 -5 79 -33 111 -64 19
-18 42 -78 42 -110 0 -15 12 -40 28 -58 15 -17 -21 18 -80 78 -60 60 -105 113
-102 118 3 5 2 8 -3 7 -5 -2 -24 15 -43 37 -20 23 -24 31 -10 18 14 -12 39
-24 57 -26z m3473 30 c0 -2 -10 -12 -22 -23 l-23 -19 19 23 c18 21 26 27 26
19z m-100 -113 c-105 -108 -224 -222 -198 -189 8 11 24 38 34 60 22 48 55 81
109 105 22 10 53 32 69 49 17 17 32 31 35 31 3 0 -19 -25 -49 -56z m-3105
-224 c10 -11 16 -20 13 -20 -3 0 -13 9 -23 20 -10 11 -16 20 -13 20 3 0 13 -9
23 -20z m2865 -4 c0 -2 -8 -10 -17 -17 -16 -13 -17 -12 -4 4 13 16 21 21 21
13z m-2819 -33 c13 -16 12 -17 -3 -4 -10 7 -18 15 -18 17 0 8 8 3 21 -13z
m2729 -37 c0 -2 -8 -10 -17 -17 -16 -13 -17 -12 -4 4 13 16 21 21 21 13z
m-2265 -244 c-3 -3 -11 0 -18 7 -9 10 -8 11 6 5 10 -3 15 -9 12 -12z m1065
-150 c22 -15 39 -31 37 -36 -5 -14 -37 -16 -37 -3 0 8 -3 7 -9 -2 -6 -9 -11
-10 -15 -2 -4 6 -13 8 -19 4 -19 -12 -141 -11 -149 1 -5 8 -8 7 -8 -1 0 -7
-11 -13 -25 -13 -22 0 -24 3 -14 18 39 62 167 80 239 34z m-573 -8 c-3 -3 -12
-4 -19 -1 -8 3 -5 6 6 6 11 1 17 -2 13 -5z m890 0 c-3 -3 -12 -4 -19 -1 -8 3
-5 6 6 6 11 1 17 -2 13 -5z m-774 -21 c-7 -2 -19 -2 -25 0 -7 3 -2 5 12 5 14
0 19 -2 13 -5z m654 1 c-3 -3 -12 -4 -19 -1 -8 3 -5 6 6 6 11 1 17 -2 13 -5z
m-570 -10 c-3 -3 -12 -4 -19 -1 -8 3 -5 6 6 6 11 1 17 -2 13 -5z m476 -1 c-7
-2 -19 -2 -25 0 -7 3 -2 5 12 5 14 0 19 -2 13 -5z m-370 -10 c-7 -2 -19 -2
-25 0 -7 3 -2 5 12 5 14 0 19 -2 13 -5z"/>
<path d="M2751 3987 c-13 -21 -12 -21 5 -5 10 10 16 20 13 22 -3 3 -11 -5 -18
-17z"/>
<path d="M3936 3442 c-3 -5 1 -9 9 -9 8 0 12 4 9 9 -3 4 -7 8 -9 8 -2 0 -6 -4
-9 -8z"/>
<path d="M3959 3419 c-5 -3 -28 -5 -49 -3 -22 1 -40 -2 -40 -6 0 -5 -9 -7 -20
-5 -12 2 -18 0 -15 -6 4 -5 11 -6 17 -3 5 4 4 -4 -2 -17 -16 -30 -25 -39 -17
-17 3 10 2 20 -3 23 -6 4 -10 1 -10 -4 0 -6 -7 -11 -16 -11 -14 0 -14 1 0 16
24 23 19 30 -5 8 -18 -16 -19 -19 -4 -30 14 -11 14 -12 0 -18 -9 -3 -14 -2
-11 3 11 17 -23 20 -36 3 -8 -10 -8 -13 -1 -9 6 4 14 3 17 -1 3 -5 -5 -9 -17
-8 -12 1 -21 8 -19 15 1 7 -2 10 -8 6 -7 -4 -7 -12 0 -26 7 -12 7 -19 1 -19
-5 0 -13 10 -17 22 -6 19 -7 19 -16 4 -5 -9 -14 -14 -19 -10 -5 3 -9 2 -8 -3
4 -22 -3 -33 -18 -32 -11 0 -13 3 -5 6 6 2 12 9 12 15 0 7 -5 7 -13 -1 -8 -6
-16 -10 -18 -8 -3 1 4 -6 14 -15 22 -21 15 -23 -16 -6 -19 10 -20 9 -10 -4 7
-8 10 -17 7 -20 -8 -9 -44 3 -44 14 0 5 5 6 10 3 6 -3 10 -1 10 4 0 15 -17 14
-26 -1 -4 -6 2 -18 12 -26 18 -14 18 -14 1 -8 -10 3 -23 6 -28 6 -6 0 -7 5 -3
12 4 6 3 8 -3 5 -6 -4 -10 -21 -9 -38 2 -28 1 -29 -11 -14 -7 10 -10 22 -6 28
3 6 2 7 -4 4 -5 -3 -8 -20 -7 -36 1 -17 -2 -28 -7 -25 -5 3 -7 10 -4 15 4 5 1
9 -4 9 -6 0 -11 -5 -11 -10 0 -6 -5 -9 -12 -8 -8 2 -12 -8 -12 -24 1 -15 -3
-25 -7 -22 -5 3 -9 -1 -9 -8 -1 -7 -7 -2 -15 12 -8 14 -14 19 -15 12 0 -8 -5
-10 -12 -6 -7 4 -4 -3 7 -16 11 -13 14 -20 6 -15 -10 6 -12 2 -6 -16 4 -17 4
-20 -4 -10 -13 19 -41 23 -34 5 3 -8 10 -11 17 -7 6 4 5 -1 -3 -10 -7 -9 -20
-17 -28 -17 -8 0 -12 -4 -8 -9 3 -5 1 -12 -5 -16 -6 -4 -8 -10 -6 -14 3 -4 -1
-8 -9 -8 -13 0 -13 3 0 17 13 14 13 17 1 17 -8 0 -15 -3 -14 -6 2 -19 -4 -24
-12 -11 -6 9 -10 10 -10 3 0 -6 10 -19 23 -29 13 -10 15 -14 5 -11 -9 3 -22
-1 -28 -8 -7 -8 -17 -12 -24 -8 -7 5 -7 2 1 -8 7 -9 8 -20 3 -28 -11 -19 -1
-41 16 -34 8 3 11 9 8 14 -3 5 -10 7 -15 3 -6 -3 -5 3 3 15 14 22 28 28 28 11
0 -5 -5 -10 -11 -10 -8 0 -8 -5 1 -15 10 -12 9 -16 -4 -21 -9 -3 -14 -10 -11
-14 3 -5 1 -11 -4 -15 -5 -3 -14 3 -20 12 -9 16 -10 16 -8 -4 0 -12 5 -19 9
-17 4 3 8 -3 8 -13 0 -15 2 -16 11 -3 9 12 10 11 4 -5 -12 -33 -11 -50 3 -47
8 1 11 -2 7 -8 -5 -8 -11 -8 -19 -1 -7 6 -16 8 -19 4 -4 -3 -7 0 -7 7 0 7 -3
10 -7 6 -4 -3 9 -20 28 -36 19 -17 27 -29 19 -28 -9 2 -14 -4 -14 -14 1 -10
-4 -14 -12 -11 -8 3 -14 0 -14 -6 0 -10 13 -15 32 -12 8 1 4 -26 -5 -35 -12
-12 -8 -26 5 -18 7 4 8 3 4 -4 -4 -6 -13 -9 -21 -5 -24 9 -17 -13 8 -26 20
-11 20 -11 -8 -6 -19 4 -25 2 -17 -3 19 -13 19 -17 -1 -39 -14 -17 -15 -20 -2
-21 8 -1 21 -3 29 -4 14 -1 16 -22 3 -34 -12 -12 -8 -26 5 -18 7 4 8 3 4 -4
-4 -6 -13 -9 -22 -5 -13 5 -13 8 1 23 14 16 14 18 0 24 -24 9 -32 7 -16 -3 12
-8 12 -12 3 -24 -10 -12 -9 -18 3 -31 9 -9 21 -13 27 -10 7 5 8 2 4 -5 -5 -7
-14 -10 -21 -7 -8 3 -19 -3 -27 -12 -12 -15 -11 -16 5 -3 10 8 17 9 17 3 0 -6
-4 -13 -9 -16 -8 -5 -8 -27 -1 -46 1 -3 2 -9 1 -13 -1 -5 3 -6 9 -2 6 3 7 11
4 17 -4 7 -2 8 5 4 7 -5 8 -13 2 -23 -5 -9 -5 -28 -1 -42 4 -14 6 -34 4 -44
-1 -9 2 -15 6 -12 5 3 7 14 5 25 -2 11 1 20 7 20 5 0 8 -6 5 -14 -3 -7 0 -19
6 -26 7 -8 7 -10 1 -7 -7 4 -11 -5 -11 -23 0 -17 4 -30 9 -30 4 0 8 -8 8 -17
0 -15 2 -16 10 -3 5 8 6 17 2 20 -13 9 -13 40 -1 40 7 0 9 -3 6 -7 -4 -3 0
-17 9 -31 9 -13 11 -21 5 -18 -6 4 -11 3 -11 -3 0 -5 -3 -18 -6 -28 -5 -17 -5
-17 6 0 6 9 19 17 28 16 14 0 14 -2 2 -7 -8 -4 -15 -19 -16 -34 0 -15 2 -25 4
-23 3 3 10 -3 17 -12 9 -13 14 -13 20 -3 6 9 4 11 -5 5 -10 -6 -12 -4 -7 9 5
11 3 15 -5 10 -7 -4 -8 -3 -4 4 11 18 23 14 29 -9 4 -13 10 -18 18 -13 7 4 10
3 5 -4 -3 -5 -1 -12 6 -14 7 -3 5 -7 -6 -11 -9 -4 -15 -3 -11 2 3 5 0 13 -6
16 -7 5 -10 0 -7 -11 2 -14 12 -18 34 -18 26 1 31 -2 29 -20 -1 -25 13 -48 26
-40 8 5 13 -9 11 -27 -1 -4 9 -2 23 4 13 7 21 16 18 21 -4 5 -1 6 6 1 9 -5 9
-11 3 -17 -13 -13 12 -43 27 -33 5 3 12 1 16 -5 3 -5 1 -10 -6 -10 -7 0 -10
-3 -6 -6 3 -3 13 -2 22 4 16 8 16 10 -1 17 -11 5 -22 9 -26 9 -14 2 -9 20 6
22 9 1 14 -3 13 -9 -1 -7 4 -11 11 -10 6 2 12 -2 12 -9 0 -9 3 -9 12 0 7 7 16
12 20 12 4 0 -1 -9 -12 -20 -22 -22 -25 -36 -10 -45 5 -3 7 0 4 8 -3 8 3 20
12 28 16 12 17 12 11 -4 -4 -11 -3 -16 3 -12 6 3 10 1 10 -4 0 -6 5 -11 11
-11 8 0 8 4 0 14 -9 11 -9 16 0 22 8 4 9 3 5 -4 -9 -16 7 -15 22 0 9 9 12 9
12 0 0 -7 -5 -12 -11 -12 -6 0 -9 -6 -6 -12 4 -15 45 -11 65 5 10 8 12 7 10
-3 -2 -8 3 -15 10 -16 6 -1 17 -2 22 -3 6 0 10 -7 10 -15 0 -27 31 -26 57 2
22 23 24 24 14 5 -13 -25 -9 -27 38 -23 17 1 21 -2 15 -12 -6 -11 -5 -11 8 0
9 7 20 12 24 11 23 -4 54 2 54 11 0 5 -7 7 -15 4 -8 -4 -15 -2 -15 4 0 14 30
9 39 -7 6 -10 9 -9 14 2 3 8 0 20 -6 27 -9 10 -9 11 3 4 8 -5 17 -9 20 -9 25
-4 49 -18 44 -27 -4 -7 -2 -8 5 -4 6 4 9 12 6 17 -4 5 -2 9 4 9 5 0 14 -7 19
-16 8 -15 10 -15 15 0 4 10 3 15 -3 11 -6 -3 -10 -1 -10 5 0 8 14 11 39 8 28
-2 37 0 34 9 -3 7 -10 10 -17 6 -6 -3 -7 -2 -3 3 5 5 16 9 25 9 11 0 16 7 15
20 -1 19 -1 20 12 1 15 -20 11 -41 -6 -31 -5 4 -9 1 -9 -4 0 -14 17 -14 25 -1
3 6 15 10 26 10 10 0 19 4 19 10 0 5 -7 7 -15 4 -10 -4 -15 0 -14 12 0 11 3
14 6 6 3 -8 11 -4 25 13 18 24 22 25 37 11 16 -14 17 -13 15 14 -2 26 5 34 27
32 3 -1 12 10 20 24 11 22 11 27 -1 34 -9 6 -10 10 -3 10 6 0 15 -5 18 -10 11
-17 23 -1 17 22 -4 16 -2 19 8 13 8 -5 11 -4 6 3 -3 6 -2 13 4 17 5 3 10 12
10 18 0 7 -4 6 -10 -3 -8 -12 -10 -12 -15 2 -4 10 -13 15 -23 11 -10 -3 -13
-1 -7 4 6 4 10 14 9 21 -1 6 -2 17 -3 23 -1 8 -7 7 -18 -2 -17 -13 -17 -13 0
7 9 11 14 24 10 29 -5 4 -2 5 5 1 7 -4 10 -12 7 -17 -4 -5 2 -6 12 -2 15 6 16
4 6 -8 -10 -12 -10 -18 0 -29 10 -10 9 -11 -2 -5 -9 5 -12 4 -7 -3 13 -22 24
-12 22 20 -1 17 -8 34 -14 36 -7 2 -9 9 -6 14 4 7 2 8 -4 4 -6 -3 -15 1 -20
10 -8 15 -10 15 -15 0 -4 -10 -3 -15 3 -11 6 3 7 -1 4 -10 -4 -9 -9 -14 -12
-11 -9 10 -8 51 3 59 6 5 4 7 -5 4 -8 -2 -21 3 -28 12 -11 14 -11 14 -6 -2 4
-10 3 -17 -2 -16 -22 4 -35 -2 -28 -13 6 -10 4 -10 -7 0 -20 18 -33 15 -18 -5
13 -16 12 -17 -3 -4 -10 7 -18 9 -18 4 0 -5 -9 -9 -20 -10 -11 -1 -20 3 -20 8
0 6 4 8 9 5 5 -3 20 3 34 14 29 23 42 26 31 8 -5 -9 -2 -9 9 1 22 17 22 17
-12 17 -17 0 -28 -3 -25 -8 3 -4 1 -8 -5 -8 -5 0 -11 3 -14 8 -2 4 -2 1 -1 -5
3 -12 -11 -17 -43 -16 -7 1 -10 -4 -6 -10 4 -6 0 -8 -8 -5 -10 4 -15 -1 -16
-13 -2 -17 0 -18 13 -4 19 19 20 19 27 1 4 -11 1 -13 -10 -9 -11 4 -14 3 -9
-6 5 -7 2 -10 -5 -9 -7 2 -13 -3 -14 -11 0 -8 -8 -15 -18 -17 -9 -1 -15 2 -11
7 3 5 1 9 -4 9 -16 0 -22 -13 -12 -25 7 -8 2 -11 -18 -11 -15 1 -31 4 -37 7
-17 9 -40 5 -41 -8 -3 -26 -5 -28 -15 -11 -5 9 -16 15 -24 12 -8 -4 -13 -9
-10 -13 2 -4 -1 -8 -8 -9 -96 -9 -97 -9 -84 6 10 13 9 15 -6 9 -10 -4 -23 -7
-28 -7 -4 0 -6 -8 -2 -17 7 -19 5 -18 -17 11 -8 11 -10 17 -3 13 6 -4 14 -3
17 2 13 21 -14 20 -28 -1 -11 -15 -16 -18 -16 -8 0 13 -2 13 -9 1 -7 -11 -10
-10 -15 6 -7 23 -50 47 -83 46 -13 0 -23 4 -23 10 0 5 -7 4 -15 -3 -13 -11
-14 -10 -9 4 3 9 10 16 16 16 5 0 6 5 2 11 -5 8 -10 6 -16 -5 -5 -9 -17 -16
-26 -16 -16 1 -16 1 1 11 9 5 17 15 17 22 0 8 -3 8 -8 2 -4 -5 -16 -12 -27
-13 -18 -4 -17 -1 5 19 17 15 19 20 7 16 -13 -5 -21 0 -29 18 -6 14 -15 25
-20 25 -5 0 1 -14 13 -31 21 -30 21 -30 1 -18 -11 7 -18 17 -16 21 3 4 0 8 -6
8 -7 0 -10 6 -7 14 3 8 3 17 -1 19 -4 2 -1 2 6 1 16 -4 16 8 0 24 -10 10 -10
15 0 21 11 7 10 10 -3 15 -9 3 -20 4 -24 1 -4 -2 -8 2 -8 9 0 8 6 12 14 9 19
-7 16 7 -4 23 -17 13 -17 14 0 8 9 -3 17 -1 17 5 0 6 -7 11 -15 11 -8 0 -15 4
-15 10 0 5 7 7 15 4 11 -5 13 -2 8 12 -4 12 -3 15 6 9 10 -6 11 -3 3 11 -14
26 -13 36 6 58 9 11 11 16 5 12 -14 -8 -16 0 -15 48 1 16 7 33 14 37 10 7 10
9 0 9 -15 0 -31 -39 -24 -60 3 -8 2 -12 -2 -8 -4 3 -9 27 -10 52 -1 26 1 41 5
35 4 -6 12 -9 17 -5 14 8 4 36 -11 33 -10 -2 -12 11 -8 43 0 5 7 7 15 4 8 -3
17 0 22 7 4 7 3 10 -4 5 -6 -3 -20 3 -31 16 -24 25 -20 38 5 14 22 -23 40 -6
24 23 -6 12 -15 19 -20 16 -5 -3 -11 -1 -14 4 -8 13 22 7 36 -7 7 -7 16 -12
21 -12 5 0 1 7 -7 16 -12 12 -13 20 -6 35 6 10 15 18 21 16 6 -1 13 6 14 16 2
11 7 22 11 25 4 4 4 -1 1 -10 -4 -11 -1 -18 6 -18 8 0 8 -3 -2 -9 -7 -5 -9
-11 -4 -14 5 -3 17 5 27 18 10 14 23 22 29 18 6 -4 7 -1 2 7 -6 10 -4 12 10 6
14 -5 16 -4 6 8 -9 11 -7 15 13 18 14 3 31 0 38 -6 9 -8 9 -7 -1 6 -7 10 -19
14 -29 11 -9 -3 -15 -4 -12 -2 3 2 17 14 31 27 20 17 29 20 34 11 5 -7 4 -10
-2 -6 -6 4 -17 -1 -24 -10 -12 -14 -12 -16 2 -11 9 4 21 2 26 -3 7 -7 9 3 7
27 -2 24 0 33 6 24 5 -7 16 -15 24 -16 9 -1 14 2 11 6 -3 5 4 8 15 7 11 -1 20
-6 20 -12 0 -5 4 -4 9 4 5 8 7 20 4 28 -3 7 -1 13 5 13 6 0 13 -6 15 -12 4
-10 6 -9 6 1 1 11 4 11 18 0 13 -11 15 -11 9 -1 -5 9 -3 13 5 11 26 -3 39 1
39 12 0 8 -5 8 -15 -1 -9 -7 -15 -8 -15 -2 0 14 28 23 35 12 4 -6 13 -10 21
-10 9 0 12 5 8 12 -4 7 -3 8 5 4 9 -6 9 -11 0 -22 -6 -7 -15 -12 -19 -9 -5 3
-11 1 -14 -4 -7 -10 20 -9 30 2 10 9 26 9 20 -1 -2 -4 9 -8 25 -8 16 -1 29 2
29 6 0 4 -10 7 -22 6 -11 0 -23 6 -25 14 -3 10 -2 11 4 4 4 -6 16 -10 26 -8
10 1 21 -4 24 -12 3 -8 11 -14 18 -14 7 0 16 -6 18 -12 4 -9 6 -10 6 -1 1 6
-6 18 -14 27 -13 13 -12 14 12 12 17 -2 33 3 40 13 12 14 12 14 6 -4 -6 -18
-3 -17 21 4 19 19 23 27 14 33 -9 6 -7 8 7 6 13 -2 20 3 20 14 0 10 6 23 12
29 10 10 12 8 8 -10 -2 -13 -9 -29 -16 -37 -9 -11 -9 -14 1 -14 6 0 14 9 17
20 3 11 10 17 16 13 5 -3 7 -1 3 5 -3 6 -2 13 4 17 5 3 10 12 10 18 0 8 -3 8
-9 -1 -6 -10 -10 -10 -21 3 -10 12 -10 15 3 15 9 0 15 8 14 19 0 11 -5 17 -9
15 -5 -3 -6 -10 -3 -15 4 -5 -1 -9 -10 -9 -13 0 -14 4 -5 20 6 11 15 20 20 20
6 0 10 4 10 9 0 5 -11 4 -24 -2 -13 -7 -22 -15 -20 -19 3 -5 0 -8 -6 -8 -7 0
-10 6 -7 14 3 8 0 20 -8 26 -8 6 -11 18 -9 25 7 17 -46 46 -75 40 -12 -2 -19
0 -16 6 4 5 2 9 -3 9 -5 0 -12 10 -15 22 -4 12 -9 19 -13 15 -4 -4 -14 -1 -22
6 -13 9 -14 9 -8 0 4 -8 2 -13 -4 -13 -6 0 -9 -4 -6 -9 4 -5 -3 -7 -14 -4 -11
3 -20 9 -20 14 0 5 8 5 17 2 15 -6 16 -5 3 9 -14 14 -16 14 -28 -6 l-13 -21 6
22 c5 18 2 22 -15 20 -11 -1 -25 -4 -31 -8z m33 -21 c-2 -10 -6 -18 -7 -18 -1
0 -5 8 -7 18 -3 11 0 19 7 19 7 0 10 -8 7 -19z m-105 -7 c0 -11 -5 -18 -9 -15
-4 3 -5 11 -1 19 7 21 12 19 10 -4z m28 9 c3 -5 1 -10 -4 -10 -6 0 -11 5 -11
10 0 6 2 10 4 10 3 0 8 -4 11 -10z m49 -1 c3 -3 -4 -5 -14 -6 -11 -1 -20 2
-20 7 0 8 25 8 34 -1z m124 -18 c-7 -9 -13 -18 -15 -20 -1 -2 -1 5 0 16 0 11
7 20 14 20 10 0 10 -4 1 -16z m89 -47 c-3 -3 -12 -4 -19 -1 -8 3 -5 6 6 6 11
1 17 -2 13 -5z m-485 -21 c-6 -3 -10 -8 -7 -13 3 -4 -3 -14 -13 -21 -15 -13
-16 -12 -3 4 7 9 10 17 6 17 -4 0 -2 7 5 15 7 9 16 13 19 9 3 -4 0 -9 -7 -11z
m518 13 c0 -3 -4 -8 -10 -11 -5 -3 -10 -1 -10 4 0 6 5 11 10 11 6 0 10 -2 10
-4z m-642 -95 c11 -7 10 -9 -3 -14 -9 -4 -14 -3 -10 2 3 5 -1 12 -7 14 -7 3
-8 6 -3 6 6 0 16 -3 23 -8z m-83 -59 c-3 -3 -11 0 -18 7 -9 10 -8 11 6 5 10
-3 15 -9 12 -12z m452 -65 c-4 -13 -35 -18 -42 -7 -3 5 4 7 16 5 15 -3 19 0
15 11 -3 9 -2 12 5 9 5 -4 8 -12 6 -18z m153 13 c0 -5 -5 -10 -11 -10 -5 0 -7
5 -4 10 3 6 8 10 11 10 2 0 4 -4 4 -10z m-217 -43 c3 -9 -6 -12 -29 -12 -40 0
-42 3 -11 15 30 12 34 12 40 -3z m-123 -33 c0 -8 -19 -13 -24 -6 -3 5 1 9 9 9
8 0 15 -2 15 -3z m-60 -44 c0 -5 -2 -10 -4 -10 -3 0 -8 5 -11 10 -3 6 -1 10 4
10 6 0 11 -4 11 -10z m-360 -17 c0 -3 -6 -3 -14 0 -7 3 -20 0 -27 -6 -11 -10
-11 -9 0 5 11 15 41 15 41 1z m344 -24 c-10 -11 -20 -16 -23 -13 -3 4 0 9 7
11 6 3 12 9 12 14 0 6 -5 7 -12 3 -7 -4 -8 -3 -4 4 4 6 13 9 22 5 13 -5 13 -8
-2 -24z m-96 -124 c-3 -3 -9 2 -12 12 -6 14 -5 15 5 6 7 -7 10 -15 7 -18z
m-26 -251 c-9 -7 -19 -10 -22 -7 -3 3 1 8 8 10 6 3 12 12 12 21 0 14 2 15 9 3
7 -10 4 -19 -7 -27z m-262 10 c0 -8 -19 -13 -24 -6 -3 5 1 9 9 9 8 0 15 -2 15
-3z m267 -44 c1 -11 -2 -22 -6 -24 -6 -4 -7 26 -2 42 3 8 7 -1 8 -18z m-274
-117 c-7 -2 -13 -9 -13 -14 0 -6 4 -8 8 -5 5 3 9 -1 9 -8 0 -11 -4 -12 -18 -3
-13 8 -15 15 -7 24 6 7 16 13 22 12 7 0 6 -2 -1 -6z m283 -33 c0 -11 -6 -22
-14 -25 -7 -2 -11 -1 -9 3 2 4 7 15 10 25 8 22 13 22 13 -3z m-276 -50 c0 -5
-5 -10 -11 -10 -5 0 -7 5 -4 10 3 6 8 10 11 10 2 0 4 -4 4 -10z m1073 -65 c-4
-14 -30 -14 -30 0 0 7 7 12 16 10 9 -1 15 -6 14 -10z m-602 -79 c13 -9 18 -14
11 -11 -7 4 -21 1 -30 -7 -15 -11 -15 -11 -5 3 7 9 10 19 6 22 -3 4 -12 -1
-20 -11 -10 -13 -13 -14 -11 -2 2 8 -3 14 -10 12 -8 -1 -11 1 -8 6 8 13 41 8
67 -12z m319 -18 c0 -4 -4 -8 -9 -8 -6 0 -12 4 -15 8 -3 5 1 9 9 9 8 0 15 -4
15 -9z m-63 -20 c-3 -8 -6 -5 -6 6 -1 11 2 17 5 13 3 -3 4 -12 1 -19z m73 -8
c0 -5 -2 -10 -4 -10 -3 0 -8 5 -11 10 -3 6 -1 10 4 10 6 0 11 -4 11 -10z
m-710 -4 c0 -2 -7 -7 -16 -10 -8 -3 -12 -2 -9 4 6 10 25 14 25 6z m1052 -11
c0 -5 -5 -10 -11 -11 -8 -2 -7 -1 0 3 8 4 7 8 -2 15 -11 8 -11 9 -1 6 8 -2 14
-8 14 -13z m-51 -88 c-10 -9 -11 -8 -5 6 3 10 9 15 12 12 3 -3 0 -11 -7 -18z
m-896 -18 c-5 -27 -11 -33 -20 -20 -3 6 -2 11 4 11 6 0 8 7 5 15 -4 8 -1 15 4
15 6 0 9 -10 7 -21z m33 -27 c-7 -10 -13 -18 -14 -20 -1 -2 -4 4 -7 12 -4 9
-1 15 6 13 7 -1 11 4 9 11 -1 8 2 11 8 7 8 -5 7 -12 -2 -23z m763 -19 c13 -16
12 -17 -3 -4 -17 13 -22 21 -14 21 2 0 10 -8 17 -17z m-430 -97 c11 6 11 4 0
-10 -11 -13 -16 -14 -22 -4 -5 7 -9 18 -9 23 0 6 4 4 9 -4 5 -8 14 -10 22 -5z
m95 2 c4 -7 3 -8 -4 -4 -7 4 -12 2 -12 -5 0 -7 -3 -10 -6 -6 -6 5 3 27 11 27
2 0 7 -5 11 -12z m31 -13 c0 -8 -4 -12 -9 -9 -5 3 -6 10 -3 15 9 13 12 11 12
-6z m-67 1 c0 -3 -4 -8 -10 -11 -5 -3 -10 -1 -10 4 0 6 5 11 10 11 6 0 10 -2
10 -4z"/>
<path d="M3745 3380 c-3 -6 1 -7 9 -4 18 7 21 14 7 14 -6 0 -13 -4 -16 -10z"/>
<path d="M4131 3374 c6 -7 17 -10 25 -7 22 8 16 19 -11 19 -18 0 -22 -3 -14
-12z"/>
<path d="M4206 3361 c-3 -5 1 -11 9 -14 9 -4 12 -1 8 9 -6 16 -10 17 -17 5z"/>
<path d="M4230 3296 c6 -8 18 -12 26 -9 22 8 16 18 -12 21 -22 2 -24 0 -14
-12z"/>
<path d="M3433 3171 c0 -11 5 -18 9 -15 4 3 5 11 1 19 -7 21 -12 19 -10 -4z"/>
<path d="M4210 3105 c-12 -13 -27 -22 -31 -19 -5 3 -9 1 -9 -3 0 -16 36 -31
51 -22 11 8 11 9 -3 7 -9 -2 -17 2 -16 7 0 6 4 9 10 7 5 -1 7 2 4 7 -4 5 -2
12 4 16 5 3 10 1 10 -4 0 -6 4 -11 9 -11 9 0 9 25 0 35 -3 3 -16 -6 -29 -20z"/>
<path d="M3334 3099 c-4 -7 -3 -9 4 -5 5 3 12 0 15 -6 2 -7 7 -10 11 -7 4 3 0
12 -8 18 -11 9 -16 9 -22 0z"/>
<path d="M3810 3019 c0 -5 5 -7 10 -4 6 3 10 8 10 11 0 2 -4 4 -10 4 -5 0 -10
-5 -10 -11z"/>
<path d="M3597 2905 c-4 -8 -3 -16 1 -19 4 -3 9 4 9 15 2 23 -3 25 -10 4z"/>
<path d="M3246 2852 c-3 -6 -1 -14 5 -17 15 -10 25 3 12 16 -7 7 -13 7 -17 1z"/>
<path d="M3243 2777 c9 -8 17 -18 17 -22 0 -4 -8 -4 -17 0 -15 5 -16 4 -5 -6
10 -11 15 -10 27 2 14 14 13 17 -12 27 -24 11 -26 11 -10 -1z"/>
<path d="M3553 2763 c0 -9 4 -10 14 -2 7 6 13 12 13 14 0 1 -6 2 -13 2 -8 0
-14 -6 -14 -14z"/>
<path d="M3248 2693 c19 -8 14 -26 -5 -18 -14 5 -15 4 -6 -6 10 -10 16 -9 28
1 13 11 13 15 3 21 -7 5 -17 8 -23 8 -5 0 -4 -3 3 -6z"/>
<path d="M4154 2255 c1 -8 7 -20 13 -26 9 -9 11 -7 8 7 -2 11 -4 22 -4 27 -1
4 -5 7 -10 7 -5 0 -8 -7 -7 -15z"/>
<path d="M4115 2229 c-6 -17 -9 -18 -23 -8 -14 11 -15 11 -5 -1 20 -22 38 -19
39 6 2 29 -3 31 -11 3z"/>
<path d="M3806 2214 c-3 -9 -4 -19 -1 -22 3 -3 5 1 5 9 0 11 2 11 10 -1 5 -8
10 -10 10 -5 0 6 -4 16 -9 23 -6 11 -10 10 -15 -4z"/>
<path d="M3953 2193 c-7 -2 -13 -9 -13 -15 0 -7 5 -7 13 1 8 6 18 7 22 3 5 -4
5 -1 1 6 -4 6 -8 12 -9 11 -1 0 -8 -3 -14 -6z"/>
<path d="M4410 2055 c-11 -13 -10 -14 4 -9 9 3 16 10 16 15 0 13 -6 11 -20 -6z"/>
<path d="M3426 2052 c-3 -5 1 -9 9 -9 8 0 12 4 9 9 -3 4 -7 8 -9 8 -2 0 -6 -4
-9 -8z"/>
<path d="M4365 2011 c-3 -8 -1 -19 5 -25 8 -8 9 -6 4 8 -4 11 -3 17 2 14 5 -3
15 0 21 7 10 11 9 13 -7 12 -11 -1 -22 -8 -25 -16z"/>
<path d="M4310 1975 c-9 -11 -10 -19 -3 -26 13 -13 35 12 24 29 -6 10 -11 9
-21 -3z"/>
<path d="M3744 1895 c-4 -9 -4 -19 0 -22 3 -4 6 1 6 11 0 9 5 14 10 11 6 -4 7
-12 3 -18 -5 -8 -2 -8 9 0 8 7 17 12 19 10 2 -1 3 0 1 3 -2 3 -7 5 -10 5 -4 0
-13 4 -20 8 -7 5 -14 2 -18 -8z"/>
<path d="M4054 1886 c-4 -9 -4 -20 0 -23 3 -4 6 1 6 11 0 9 4 15 10 11 5 -3 7
-12 3 -20 -3 -8 -3 -15 0 -15 13 0 14 30 2 40 -12 10 -16 9 -21 -4z"/>
<path d="M1157 3363 c-4 -3 -1 -13 5 -21 10 -12 8 -13 -12 -10 -14 1 -29 8
-33 13 -5 6 -7 4 -6 -5 1 -8 1 -22 0 -30 -1 -13 -3 -13 -10 -1 -5 8 -7 21 -4
30 4 13 3 13 -5 2 -6 -8 -19 -12 -30 -9 -15 4 -19 2 -15 -8 3 -10 0 -12 -10
-8 -10 3 -13 12 -10 22 4 13 3 14 -6 6 -7 -6 -13 -20 -14 -32 -1 -16 -4 -18
-14 -10 -7 6 -13 16 -13 22 0 6 5 4 10 -4 5 -8 10 -10 10 -4 0 6 -8 18 -17 25
-11 10 -14 10 -9 2 4 -7 2 -13 -4 -13 -7 0 -8 -6 -1 -18 7 -14 6 -19 -4 -19
-8 0 -11 5 -8 10 4 6 0 8 -10 4 -19 -7 -32 8 -16 19 8 5 9 3 4 -7 -5 -8 -4
-10 0 -6 5 4 10 14 11 23 2 11 -1 12 -10 5 -7 -6 -16 -7 -20 -3 -4 4 -7 2 -6
-3 5 -24 -1 -34 -17 -28 -10 4 -14 2 -10 -4 9 -15 -11 -11 -52 10 -19 9 -37
15 -39 12 -3 -3 0 -5 7 -5 7 0 10 -4 6 -9 -3 -5 0 -13 6 -17 8 -5 9 -3 4 6 -5
9 -4 11 4 6 6 -4 9 -12 5 -17 -3 -5 -9 -7 -14 -4 -4 3 -10 2 -13 -2 -2 -5 -3
-3 -1 4 1 6 -7 19 -19 29 -12 11 -19 15 -15 10 15 -17 -12 -36 -37 -26 -19 7
-23 6 -18 -5 3 -9 14 -13 29 -11 13 3 26 1 28 -3 3 -4 -5 -8 -17 -8 -60 -4
-101 -31 -90 -60 6 -16 5 -17 -9 -2 -9 8 -18 24 -21 35 -3 10 -5 5 -4 -13 1
-17 4 -30 8 -27 4 2 5 -5 2 -16 -3 -13 0 -20 8 -20 10 0 10 -3 1 -12 -7 -7
-12 -20 -12 -31 0 -10 -4 -15 -10 -12 -5 3 -10 2 -10 -3 0 -6 7 -13 16 -16 14
-5 14 -9 3 -23 -8 -9 -9 -14 -3 -10 7 4 17 0 24 -8 6 -7 18 -11 26 -8 8 3 14
0 14 -6 0 -6 9 -11 21 -11 11 0 18 4 15 8 -3 5 1 9 9 9 8 0 12 -4 9 -9 -3 -4
4 -8 15 -8 22 0 36 -16 22 -24 -5 -4 -11 -1 -13 6 -5 14 -28 2 -28 -15 0 -8 3
-7 9 2 7 11 11 10 20 -5 6 -12 11 -14 11 -5 0 10 3 11 13 2 10 -8 14 -7 14 4
0 8 -5 11 -10 8 -6 -4 -7 -1 -2 7 6 10 12 8 26 -8 17 -22 30 -28 28 -14 -4 21
3 23 23 6 21 -18 22 -18 8 -1 -13 17 -12 19 5 17 37 -4 56 0 50 10 -5 8 -12 7
-22 -2 -15 -12 -15 -11 -2 9 9 16 16 19 21 10 9 -15 31 -16 40 -2 5 6 8 6 8
-2 0 -7 -7 -16 -16 -21 -15 -8 -15 -10 0 -15 11 -4 15 -3 10 4 -4 8 1 9 17 4
17 -4 20 -3 10 3 -8 6 -10 15 -6 22 6 10 10 9 17 -4 11 -20 29 -22 22 -2 -3 8
0 17 6 21 6 3 10 3 9 -2 -3 -18 1 -33 10 -33 5 0 7 10 5 23 -4 20 -4 21 5 2 5
-11 10 -15 11 -10 0 6 7 -1 14 -15 15 -27 13 -41 -7 -36 -7 1 -9 1 -4 -1 4 -3
4 -10 1 -15 -4 -6 -2 -8 3 -5 6 4 14 0 17 -9 5 -12 2 -15 -9 -10 -9 3 -14 2
-10 -3 3 -5 2 -11 -2 -14 -5 -2 -3 -3 3 -1 6 1 16 -7 23 -18 7 -11 8 -17 3
-14 -6 3 -12 3 -15 -1 -2 -5 -3 -3 -1 3 1 6 -3 11 -10 11 -6 0 -12 -8 -12 -18
0 -13 7 -16 28 -13 23 2 26 1 15 -10 -6 -8 -16 -13 -22 -11 -5 1 -7 0 -3 -2 4
-2 5 -12 2 -21 -4 -12 1 -9 15 7 12 13 21 18 21 13 0 -6 -4 -14 -10 -17 -5 -3
-10 -11 -10 -16 0 -6 3 -8 8 -5 4 2 8 -20 8 -50 0 -30 -3 -54 -7 -54 -4 0 -5
17 -3 38 2 25 1 32 -6 22 -7 -12 -9 -10 -7 7 0 12 6 19 12 16 5 -4 6 -2 2 2
-4 5 -14 10 -23 11 -11 2 -12 -1 -4 -11 8 -10 8 -15 -1 -20 -8 -6 -7 -10 2
-16 16 -10 19 -31 6 -40 -11 -8 1 -32 11 -25 4 2 12 -2 19 -9 10 -10 9 -14 -3
-19 -9 -3 -12 -1 -9 4 3 6 1 10 -5 10 -7 0 -10 -6 -7 -12 2 -7 12 -12 21 -12
9 1 16 -2 16 -7 0 -5 -7 -9 -15 -9 -8 0 -15 -5 -15 -11 0 -6 9 -8 23 -4 18 5
17 3 -5 -10 -16 -9 -28 -19 -28 -23 0 -16 23 -30 39 -25 13 4 13 2 -1 -7 -10
-6 -18 -15 -18 -20 0 -5 8 -7 18 -4 13 5 14 4 3 -4 -8 -6 -20 -8 -27 -5 -6 2
-15 0 -18 -5 -7 -12 40 -53 50 -44 5 4 3 0 -4 -10 -8 -10 -9 -18 -3 -22 5 -4
9 -15 8 -26 -1 -10 -5 -17 -9 -14 -4 3 -5 11 -1 19 3 10 1 13 -8 10 -16 -6
-22 -55 -7 -55 5 0 6 4 3 10 -4 6 1 7 11 3 11 -4 13 -8 6 -11 -7 -2 -12 -13
-12 -24 0 -18 2 -19 18 -7 15 12 15 11 -1 -8 -12 -13 -14 -23 -7 -26 6 -3 5
-4 -2 -3 -7 2 -12 9 -11 15 2 6 -1 11 -6 11 -6 0 -9 -9 -8 -19 0 -11 5 -17 9
-15 4 3 9 -7 10 -23 0 -15 2 -32 3 -38 2 -5 3 -16 4 -22 0 -7 4 -12 9 -10 4 1
7 -2 7 -8 0 -5 -3 -9 -7 -8 -3 1 -9 -4 -12 -12 -3 -9 0 -12 9 -9 10 4 12 -1 8
-18 -4 -13 -10 -26 -15 -29 -6 -3 -2 -9 7 -12 9 -4 13 -3 10 2 -3 5 0 13 7 17
7 4 10 4 6 -1 -4 -4 -3 -14 3 -21 8 -9 4 -12 -15 -10 -29 4 -54 -18 -36 -29 8
-5 7 -11 -2 -23 -10 -12 -10 -14 0 -8 6 4 12 3 12 -3 0 -5 -8 -12 -17 -15 -14
-4 -14 -4 2 -3 21 2 31 47 13 58 -7 4 -6 9 1 13 6 4 11 2 11 -4 0 -6 4 -9 9
-5 5 3 13 0 17 -6 4 -7 3 -9 -4 -5 -6 4 -11 -1 -11 -11 -2 -55 -6 -71 -15 -70
-6 1 -9 -5 -7 -13 2 -8 3 -24 3 -35 -1 -11 3 -22 9 -25 6 -4 5 -18 -2 -39 -6
-17 -9 -35 -5 -38 3 -4 6 -1 6 6 0 7 4 9 10 6 6 -4 7 1 3 12 -5 15 -4 16 8 5
12 -11 10 -16 -10 -33 -28 -23 -15 -25 18 -3 22 16 23 16 12 -3 -9 -17 -7 -20
10 -19 11 0 25 8 30 16 9 12 9 11 4 -5 -4 -11 -9 -27 -12 -35 -3 -8 4 -1 16
15 11 17 21 24 21 17 0 -7 5 -10 12 -6 7 4 8 3 4 -4 -5 -8 0 -12 13 -12 12 0
21 5 21 11 0 5 -4 7 -10 4 -6 -4 -7 1 -3 11 6 16 8 15 16 -4 13 -28 22 -28 53
3 13 13 28 25 32 25 4 0 7 6 7 13 0 6 4 15 8 18 5 3 2 9 -6 12 -12 4 -14 0
-11 -21 3 -15 2 -23 -2 -20 -10 10 -46 -11 -39 -23 7 -11 -5 -12 -22 -1 -8 5
-2 12 18 21 16 7 27 17 23 22 -3 5 0 9 5 9 6 0 10 3 9 8 -1 4 4 20 11 36 9 22
14 26 25 17 11 -9 16 -9 22 0 5 8 3 9 -6 4 -9 -6 -10 -1 -5 16 5 19 4 21 -4 9
-8 -11 -11 -12 -11 -2 0 7 -5 10 -12 6 -7 -4 -8 -3 -4 5 4 6 10 10 14 7 4 -2
16 0 27 5 19 7 19 8 -2 8 -13 1 -23 5 -23 10 0 5 10 7 22 3 19 -5 20 -4 7 10
-7 9 -18 14 -22 11 -5 -3 -3 4 5 16 7 12 17 21 22 21 4 0 2 -8 -5 -17 -13 -16
-12 -17 4 -4 13 10 15 17 6 27 -6 8 -15 12 -18 9 -4 -2 -8 2 -8 10 0 8 5 13
10 12 5 -1 11 6 12 16 2 9 -1 17 -6 17 -5 0 -9 5 -9 11 0 8 4 8 14 0 8 -7 13
-20 11 -30 -2 -10 1 -24 6 -32 11 -19 4 47 -9 81 -5 14 -10 29 -10 34 0 5 -6
13 -14 17 -10 7 -10 9 0 9 7 0 10 5 6 11 -4 8 -1 8 13 1 16 -9 19 -7 19 13 0
19 -3 22 -13 13 -16 -13 -22 -8 -28 21 -2 12 0 19 6 16 5 -4 7 -11 4 -16 -4
-5 -1 -9 5 -9 7 0 10 7 7 15 -4 8 -2 17 4 21 7 4 5 12 -3 22 -8 10 -13 27 -12
40 1 22 1 22 -25 6 -26 -17 -26 -17 -8 3 9 11 14 23 10 28 -5 4 0 5 9 2 13 -4
15 -2 11 10 -5 12 -3 14 7 8 9 -6 11 -4 5 4 -5 9 -10 10 -18 2 -6 -6 -15 -11
-20 -11 -11 0 14 25 33 33 13 5 13 6 -1 6 -8 1 -20 -4 -26 -10 -8 -8 -13 -7
-18 2 -6 8 -4 10 5 4 9 -6 12 -4 8 6 -3 8 0 26 7 39 7 13 11 30 8 37 -4 9 1
11 13 7 15 -5 16 -4 4 4 -8 6 -18 8 -23 5 -5 -3 -7 0 -5 8 3 8 14 13 24 11 18
-2 18 -2 1 8 -9 6 -21 9 -26 6 -5 -4 -7 4 -3 16 4 16 2 19 -9 13 -12 -8 -12
-6 -1 8 8 9 11 21 7 26 -3 7 0 8 10 5 11 -4 14 -2 9 9 -3 8 -13 13 -24 10 -10
-3 -21 0 -24 5 -4 6 2 8 14 5 23 -6 28 15 5 23 -8 4 -15 11 -15 16 0 6 6 5 15
-2 9 -8 15 -9 15 -2 0 6 -5 14 -10 17 -8 5 -7 12 2 23 10 12 10 16 1 19 -15 5
-18 43 -3 43 5 0 7 -6 4 -14 -3 -7 2 -16 12 -20 14 -5 15 -4 4 9 -7 8 -9 15
-4 15 4 0 -2 9 -14 20 -16 15 -20 26 -13 38 11 22 3 44 -12 35 -7 -4 -7 -1 1
9 9 11 10 18 2 23 -7 4 -7 12 0 25 13 25 13 33 -2 24 -10 -6 -10 -4 0 7 15 16
16 33 0 23 -7 -4 -8 -3 -4 5 4 6 12 9 17 5 5 -3 18 0 27 8 15 12 16 11 3 -4
-9 -13 -10 -18 -2 -18 7 0 9 -5 5 -12 -5 -9 -2 -8 10 1 9 8 15 20 12 27 -3 7
3 18 12 26 15 12 16 11 3 -4 -15 -19 -2 -25 16 -7 8 8 15 4 27 -12 9 -13 17
-20 17 -16 1 4 2 11 3 16 3 23 14 20 12 -3 -2 -15 1 -29 7 -33 6 -3 7 -1 3 5
-4 7 -3 12 2 12 6 0 9 7 8 16 0 9 7 18 18 20 14 2 16 0 7 -9 -20 -20 -11 -30
11 -11 12 10 18 14 15 8 -4 -7 0 -14 8 -18 18 -6 19 -2 4 27 -9 20 -9 21 4 4
8 -10 25 -20 37 -22 18 -3 21 -1 17 15 -3 11 -1 18 4 14 5 -3 9 -14 9 -25 0
-10 4 -19 9 -19 6 0 6 12 1 30 -5 17 -7 30 -5 30 8 0 34 -63 29 -71 -13 -21 5
-7 20 15 15 24 15 25 -6 21 -11 -3 -18 -1 -14 2 13 14 66 12 66 -2 0 -19 17
-28 26 -14 5 8 2 10 -7 5 -8 -4 -4 1 9 10 28 21 88 28 72 9 -5 -7 -20 -11 -33
-10 -16 2 -23 -3 -24 -16 -1 -10 2 -21 7 -24 4 -2 7 3 6 13 0 9 6 18 14 18 8
1 20 3 25 4 6 1 14 2 18 1 5 -1 6 3 2 9 -3 5 2 10 12 10 15 0 16 2 3 10 -8 5
-11 12 -7 16 3 4 13 1 21 -5 12 -10 13 -8 9 10 -5 16 -3 20 6 14 10 -6 11 -3
3 12 -9 15 -8 20 3 20 8 0 12 -4 9 -8 -2 -4 1 -11 8 -15 7 -4 10 -4 6 1 -4 4
-2 15 5 23 9 13 9 14 0 8 -7 -4 -13 -3 -13 3 0 6 -8 8 -17 4 -15 -5 -15 -3 2
11 l20 18 -20 -6 c-18 -5 -18 -5 -3 7 12 10 14 17 6 32 -8 15 -8 17 1 9 6 -6
13 -21 16 -34 7 -34 15 -37 12 -4 -2 29 -25 56 -39 47 -5 -2 -15 2 -23 11 -13
13 -13 15 7 22 19 6 19 7 4 16 -9 5 -14 13 -11 18 6 9 -14 8 -31 -3 -7 -4 -10
2 -8 19 1 14 0 23 -3 20 -4 -3 -17 1 -29 9 -15 9 -25 11 -29 5 -4 -6 -11 -8
-16 -4 -5 3 -6 10 -3 16 4 7 2 8 -4 4 -7 -4 -12 -17 -12 -29 -1 -20 -2 -20
-11 -4 -5 9 -15 17 -22 17 -8 0 -6 -4 3 -11 13 -9 13 -10 -2 -6 -9 3 -19 3
-22 -1 -11 -10 -37 -11 -30 -1 3 5 9 7 14 4 5 -3 14 4 20 15 11 21 11 21 -14
5 -22 -15 -29 -15 -43 -4 -11 10 -14 10 -9 2 4 -8 1 -13 -9 -13 -9 0 -14 4
-11 8 3 5 -1 9 -8 9 -8 0 -12 -6 -10 -12 3 -7 -3 -18 -13 -26 -16 -13 -17 -12
-4 4 9 12 10 17 2 17 -7 0 -9 5 -5 11 3 6 -5 4 -19 -6 -17 -10 -24 -23 -20
-33 4 -14 3 -14 -5 -3 -6 8 -9 22 -7 32 2 10 -1 22 -7 25 -6 4 -8 2 -4 -4 3
-6 2 -13 -4 -17 -6 -4 -7 -11 -4 -17 4 -6 1 -8 -7 -6 -8 3 -13 11 -11 17 1 7
-2 9 -8 6 -6 -4 -9 -13 -6 -21 3 -8 0 -11 -10 -7 -9 3 -13 13 -9 27 2 11 2 15
-1 8 -3 -6 -9 -10 -14 -7 -10 6 -8 -15 3 -32 5 -7 4 -13 -1 -13 -5 0 -13 10
-19 22 -8 18 -19 23 -54 24 -24 0 -51 3 -59 6 -8 2 -12 3 -7 1 4 -3 5 -9 2
-14 -4 -5 0 -6 8 -3 8 3 17 -2 21 -12 5 -13 3 -14 -6 -7 -7 6 -21 9 -31 8 -9
-2 -15 1 -11 6 5 8 -9 13 -28 10 -5 0 -8 3 -8 7 0 4 -10 8 -22 9 l-23 2 24
-13 c19 -11 21 -14 7 -19 -9 -4 -21 2 -31 16 -8 12 -15 16 -15 9 0 -7 -9 -11
-22 -10 -31 5 -50 17 -43 29 7 10 1 12 -8 2z m703 -49 c0 4 5 4 11 0 8 -4 7
-10 -1 -18 -8 -8 -14 -7 -21 6 -5 9 -16 15 -23 12 -8 -3 -17 0 -22 7 -4 7 -3
10 4 5 6 -3 14 -1 18 5 5 9 11 7 21 -6 7 -11 13 -15 13 -11z m-717 -4 c3 -11
1 -18 -4 -14 -5 3 -9 12 -9 20 0 20 7 17 13 -6z m34 6 c0 -8 -6 -12 -15 -9
-11 5 -11 7 0 14 7 5 13 9 14 9 0 0 1 -6 1 -14z m67 -1 c3 -8 1 -15 -4 -15 -6
0 -10 7 -10 15 0 8 2 15 4 15 2 0 6 -7 10 -15z m180 3 c-3 -4 -12 -8 -20 -8
-8 0 -14 4 -14 8 0 4 9 8 19 8 11 0 17 -4 15 -8z m179 -3 c-3 -9 -8 -14 -10
-11 -3 3 -2 9 2 15 9 16 15 13 8 -4z m-513 -17 c0 -6 -6 -5 -15 2 -8 7 -15 14
-15 16 0 2 7 1 15 -2 8 -4 15 -11 15 -16z m597 16 c-3 -3 -12 -4 -19 -1 -8 3
-5 6 6 6 11 1 17 -2 13 -5z m-907 -14 c0 -5 -5 -10 -11 -10 -5 0 -7 5 -4 10 3
6 8 10 11 10 2 0 4 -4 4 -10z m670 0 c0 -5 -2 -10 -4 -10 -3 0 -8 5 -11 10 -3
6 -1 10 4 10 6 0 11 -4 11 -10z m475 -32 c5 -4 0 -6 -12 -6 -13 1 -19 7 -16
15 3 8 8 10 12 6 3 -4 10 -11 16 -15z m-1201 -30 c-3 -5 -10 -5 -16 -2 -6 4
-17 -1 -25 -11 -7 -11 -13 -14 -13 -9 0 16 21 33 41 31 10 -1 15 -5 13 -9z
m1220 -36 c3 -5 -1 -9 -9 -9 -8 0 -12 4 -9 9 3 4 7 8 9 8 2 0 6 -4 9 -8z
m-1291 -67 c-3 -9 -8 -14 -10 -11 -3 3 -2 9 2 15 9 16 15 13 8 -4z m1278 -38
c-8 -8 -14 -7 -23 2 -11 10 -9 11 6 5 15 -6 17 -4 11 6 -6 9 -4 11 4 5 9 -5
10 -10 2 -18z m-1265 -6 c1 -6 0 -7 -3 -1 -2 5 -9 8 -13 5 -5 -3 -11 -1 -14 4
-4 5 2 8 11 7 9 -2 18 -8 19 -15z m21 -23 c-3 -8 -6 -5 -6 6 -1 11 2 17 5 13
3 -3 4 -12 1 -19z m-17 -10 c0 -6 -6 -5 -15 2 -8 7 -15 14 -15 16 0 2 7 1 15
-2 8 -4 15 -11 15 -16z m141 -26 c-7 -2 -18 1 -23 6 -8 8 -4 9 13 5 13 -4 18
-8 10 -11z m39 -10 c0 -13 -12 -22 -22 -16 -10 6 -1 24 13 24 5 0 9 -4 9 -8z
m280 4 c0 -3 -4 -8 -10 -11 -5 -3 -10 -1 -10 4 0 6 5 11 10 11 6 0 10 -2 10
-4z m-6 -72 c3 -8 2 -12 -4 -9 -6 3 -10 10 -10 16 0 14 7 11 14 -7z m16 -376
c0 -4 -7 -8 -15 -8 -8 0 -15 4 -15 8 0 5 7 9 15 9 8 0 15 -4 15 -9z m275 -47
c3 -5 2 -12 -3 -15 -5 -3 -9 1 -9 9 0 17 3 19 12 6z m-279 -33 c-12 -7 -21 -7
-28 0 -6 6 0 10 18 10 23 0 24 -2 10 -10z m291 -142 c-3 -8 1 -20 9 -27 8 -6
12 -14 10 -17 -10 -9 -36 27 -30 42 3 9 8 16 11 16 3 0 3 -6 0 -14z m-263 -74
c3 -5 -1 -9 -9 -9 -8 0 -15 4 -15 9 0 4 4 8 9 8 6 0 12 -4 15 -8z m6 -36 c0
-2 -8 -10 -17 -17 -16 -13 -17 -12 -4 4 13 16 21 21 21 13z"/>
<path d="M872 3328 c-7 -7 -12 -16 -12 -21 0 -5 7 -1 16 8 9 9 14 18 12 20 -2
3 -10 -1 -16 -7z"/>
<path d="M735 3320 c-3 -5 -1 -10 4 -10 6 0 11 5 11 10 0 6 -2 10 -4 10 -3 0
-8 -4 -11 -10z"/>
<path d="M680 3283 c0 -14 -2 -15 -9 -5 -7 11 -9 11 -14 -1 -4 -10 0 -14 11
-13 15 3 32 36 18 36 -3 0 -6 -8 -6 -17z"/>
<path d="M1933 3243 c4 -3 19 -8 34 -9 21 -2 24 -1 13 6 -17 11 -57 14 -47 3z"/>
<path d="M603 3188 c1 -14 5 -24 10 -21 4 2 7 -1 7 -6 0 -6 -8 -11 -17 -11
-15 0 -16 -2 -3 -10 23 -14 33 15 16 47 l-14 28 1 -27z"/>
<path d="M1470 3025 c-9 -11 -10 -19 -3 -26 13 -13 35 12 24 29 -6 10 -11 9
-21 -3z m20 -9 c0 -3 -4 -8 -10 -11 -5 -3 -10 -1 -10 4 0 6 5 11 10 11 6 0 10
-2 10 -4z"/>
<path d="M1761 3017 c-13 -21 -12 -21 5 -5 10 10 16 20 13 22 -3 3 -11 -5 -18
-17z"/>
<path d="M650 3021 c0 -6 4 -13 10 -16 6 -3 7 1 4 9 -7 18 -14 21 -14 7z"/>
<path d="M723 3023 c-15 -5 -17 -23 -4 -23 5 0 11 7 15 15 3 8 4 15 3 14 -1 0
-8 -3 -14 -6z"/>
<path d="M1060 2999 c-13 -9 -13 -10 1 -6 9 3 22 0 28 -6 9 -9 11 -8 6 6 -8
20 -14 21 -35 6z"/>
<path d="M1395 3000 c-3 -5 -1 -10 4 -10 6 0 11 5 11 10 0 6 -2 10 -4 10 -3 0
-8 -4 -11 -10z"/>
<path d="M1640 3000 c-8 -5 -10 -10 -5 -10 6 0 17 5 25 10 8 5 11 10 5 10 -5
0 -17 -5 -25 -10z"/>
<path d="M1403 2972 c-19 -12 -19 -34 0 -37 13 -3 15 0 8 9 -7 9 -7 16 1 24
13 13 9 15 -9 4z"/>
<path d="M1395 2861 c-3 -6 5 -15 17 -21 21 -10 21 -10 6 3 -10 8 -15 17 -11
20 3 4 4 7 0 7 -3 0 -8 -4 -12 -9z"/>
<path d="M1409 2736 c6 -8 10 -19 9 -26 -2 -7 3 -14 10 -15 7 -2 8 -1 3 1 -5
3 -7 13 -4 23 3 11 -2 21 -13 25 -14 5 -15 4 -5 -8z"/>
<path d="M1416 2631 c-4 -5 3 -7 14 -4 23 6 26 13 6 13 -8 0 -17 -4 -20 -9z"/>
<path d="M1428 2603 c7 -3 16 -2 19 1 4 3 -2 6 -13 5 -11 0 -14 -3 -6 -6z"/>
<path d="M1095 2540 c-3 -5 -2 -10 4 -10 5 0 13 5 16 10 3 6 2 10 -4 10 -5 0
-13 -4 -16 -10z"/>
<path d="M1426 2495 c-9 -14 -12 -25 -6 -25 5 0 10 5 10 11 0 5 4 8 8 5 4 -2
8 4 8 15 0 24 0 24 -20 -6z"/>
<path d="M1102 2450 c15 -24 25 -26 25 -5 0 8 -4 12 -9 9 -4 -3 -8 0 -8 5 0 6
-5 11 -10 11 -6 0 -5 -8 2 -20z"/>
<path d="M1444 2205 c2 -14 25 -44 27 -34 0 2 2 12 4 22 2 11 1 16 -2 13 -4
-3 -12 -1 -19 5 -9 7 -12 6 -10 -6z"/>
<path d="M1120 2000 c-9 -6 -10 -10 -3 -10 6 0 15 5 18 10 8 12 4 12 -15 0z"/>
<path d="M1106 1952 c-3 -5 1 -9 9 -9 8 0 12 4 9 9 -3 4 -7 8 -9 8 -2 0 -6 -4
-9 -8z"/>
<path d="M1110 1924 c0 -13 18 -39 24 -34 2 3 -2 14 -10 24 -8 11 -14 16 -14
10z"/>
<path d="M1403 1918 c3 -9 1 -19 -6 -22 -9 -3 -9 -5 0 -5 18 -1 23 13 11 29
-8 12 -9 12 -5 -2z"/>
<path d="M1094 1890 c0 -13 4 -16 10 -10 7 7 7 13 0 20 -6 6 -10 3 -10 -10z"/>
<path d="M1236 1791 c-4 -7 -5 -15 -2 -18 9 -9 19 4 14 18 -4 11 -6 11 -12 0z"/>
<path d="M1280 1770 c-23 -7 -23 -8 -3 -9 12 -1 25 4 28 9 3 6 5 10 3 9 -2 -1
-14 -5 -28 -9z"/>
<path d="M2736 2598 c3 -5 10 -6 15 -3 13 9 11 12 -6 12 -8 0 -12 -4 -9 -9z"/>
<path d="M876 1087 c3 -10 9 -15 12 -12 3 3 0 11 -7 18 -10 9 -11 8 -5 -6z"/>
<path d="M906 1038 c3 -5 9 -6 14 -3 4 3 10 0 12 -7 3 -8 6 -7 10 3 4 11 -1
15 -17 15 -13 0 -21 -4 -19 -8z"/>
<path d="M2588 333 c7 -3 16 -2 19 1 4 3 -2 6 -13 5 -11 0 -14 -3 -6 -6z"/>
<path d="M2628 333 c7 -3 16 -2 19 1 4 3 -2 6 -13 5 -11 0 -14 -3 -6 -6z"/>
<path d="M4216 4542 c-2 -4 -1 -14 4 -22 7 -11 9 -9 7 8 -1 24 -3 26 -11 14z"/>
<path d="M4259 4528 c-5 -18 -6 -38 -1 -34 7 8 12 36 6 36 -2 0 -4 -1 -5 -2z"/>
<path d="M765 4479 c-6 -8 -4 -10 5 -4 10 6 12 4 6 -11 -6 -15 -5 -17 5 -6 9
9 10 15 2 23 -8 8 -13 7 -18 -2z"/>
<path d="M810 4459 c-13 -15 -29 -26 -35 -25 -5 2 -7 1 -2 -1 4 -3 4 -9 1 -14
-4 -6 -11 -6 -19 1 -9 8 -15 8 -20 0 -4 -6 -1 -9 7 -8 7 2 12 -4 10 -12 -2 -8
18 6 44 32 27 26 46 49 44 51 -3 2 -16 -9 -30 -24z"/>
</g>
</svg>
